<?xml version="1.0" encoding="UTF-8"?>
<svg width="1200pt" height="1200pt" version="1.1" viewBox="0 0 1200 1200" xmlns="http://www.w3.org/2000/svg">
 <path d="m985.35 364.65-149.98-149.98c-9.4023-9.3398-22.117-14.582-35.367-14.582-13.254 0-25.969 5.2422-35.367 14.582l-149.98 149.98c-12.438 12.668-17.227 30.98-12.578 48.117 4.6445 17.133 18.031 30.52 35.164 35.164 17.137 4.6484 35.449-0.14063 48.117-12.578l64.648-64.648v579.3c0 17.863 9.5312 34.371 25 43.301 15.469 8.9336 34.531 8.9336 50 0 15.469-8.9297 25-25.438 25-43.301v-579.3l64.648 64.648c12.656 12.5 31 17.332 48.172 12.691 17.168-4.6406 30.582-18.055 35.223-35.223 4.6367-17.172-0.19531-35.516-12.691-48.172zm-385.35 485.35h-350c-17.863 0-34.371 9.5312-43.301 25-8.9336 15.469-8.9336 34.531 0 50 8.9297 15.469 25.438 25 43.301 25h350c17.863 0 34.371-9.5312 43.301-25 8.9336-15.469 8.9336-34.531 0-50-8.9297-15.469-25.438-25-43.301-25zm-350-100h250c17.863 0 34.371-9.5312 43.301-25 8.9336-15.469 8.9336-34.531 0-50-8.9297-15.469-25.438-25-43.301-25h-250c-17.863 0-34.371 9.5312-43.301 25-8.9336 15.469-8.9336 34.531 0 50 8.9297 15.469 25.438 25 43.301 25zm0-200h150c17.863 0 34.371-9.5312 43.301-25 8.9336-15.469 8.9336-34.531 0-50-8.9297-15.469-25.438-25-43.301-25h-150c-17.863 0-34.371 9.5312-43.301 25-8.9336 15.469-8.9336 34.531 0 50 8.9297 15.469 25.438 25 43.301 25zm0-200h50c17.863 0 34.371-9.5312 43.301-25 8.9336-15.469 8.9336-34.531 0-50-8.9297-15.469-25.438-25-43.301-25h-50c-17.863 0-34.371 9.5312-43.301 25-8.9336 15.469-8.9336 34.531 0 50 8.9297 15.469 25.438 25 43.301 25z" fill="#ff59b9"/>
</svg>
