<?xml version="1.0" encoding="UTF-8"?>
<svg width="1200pt" height="1200pt" version="1.1" viewBox="0 0 1200 1200" xmlns="http://www.w3.org/2000/svg">
 <path d="m985.35 764.65c-9.375-9.3789-22.094-14.648-35.352-14.648-13.262 0-25.98 5.2695-35.352 14.648l-64.648 64.648v-579.3c0-17.863-9.5312-34.371-25-43.301-15.469-8.9336-34.531-8.9336-50 0-15.469 8.9297-25 25.438-25 43.301v579.3l-64.648-64.648c-12.656-12.5-31-17.332-48.172-12.691-17.168 4.6406-30.582 18.055-35.223 35.223-4.6367 17.172 0.19531 35.516 12.691 48.172l149.98 149.98c9.4023 9.3398 22.117 14.582 35.367 14.582 13.254 0 25.969-5.2422 35.367-14.582l149.98-149.98c9.375-9.375 14.645-22.094 14.645-35.352s-5.2695-25.977-14.645-35.352zm-735.35-414.65h350c17.863 0 34.371-9.5312 43.301-25 8.9336-15.469 8.9336-34.531 0-50-8.9297-15.469-25.438-25-43.301-25h-350c-17.863 0-34.371 9.5312-43.301 25-8.9336 15.469-8.9336 34.531 0 50 8.9297 15.469 25.438 25 43.301 25zm250 100h-250c-17.863 0-34.371 9.5312-43.301 25-8.9336 15.469-8.9336 34.531 0 50 8.9297 15.469 25.438 25 43.301 25h250c17.863 0 34.371-9.5312 43.301-25 8.9336-15.469 8.9336-34.531 0-50-8.9297-15.469-25.438-25-43.301-25zm-100 200h-150c-17.863 0-34.371 9.5312-43.301 25-8.9336 15.469-8.9336 34.531 0 50 8.9297 15.469 25.438 25 43.301 25h150c17.863 0 34.371-9.5312 43.301-25 8.9336-15.469 8.9336-34.531 0-50-8.9297-15.469-25.438-25-43.301-25zm-100 200h-50c-17.863 0-34.371 9.5312-43.301 25-8.9336 15.469-8.9336 34.531 0 50 8.9297 15.469 25.438 25 43.301 25h50c17.863 0 34.371-9.5312 43.301-25 8.9336-15.469 8.9336-34.531 0-50-8.9297-15.469-25.438-25-43.301-25z" fill="#ff59b9"/>
</svg>
