<?xml version="1.0" encoding="UTF-8"?>
<svg width="1200pt" height="1200pt" version="1.1" viewBox="0 0 1200 1200" xmlns="http://www.w3.org/2000/svg">
 <g fill="#ff59b9">
  <path d="m300 330v720c0 16.57 13.43 30 30 30h720c16.57 0 30-13.43 30-30v-720c0-16.57-13.43-30-30-30h-720c-16.57 0-30 13.43-30 30zm60 30h660v660h-660z"/>
  <path d="m870 180h-660c-16.57 0-30 13.43-30 30v660c0 16.57 13.43 30 30 30s30-13.43 30-30v-630h630c16.57 0 30-13.43 30-30s-13.43-30-30-30z"/>
  <path d="m90 780c16.57 0 30-13.43 30-30v-630h630c16.57 0 30-13.43 30-30s-13.43-30-30-30h-660c-16.57 0-30 13.43-30 30v660c0 16.57 13.43 30 30 30z"/>
  <path d="m891.21 608.79c-11.711-11.723-30.719-11.723-42.422 0-11.723 11.711-11.723 30.707 0 42.422l8.7852 8.793h-137.58v-137.58l8.7852 8.7852c5.8555 5.8633 13.535 8.793 21.215 8.793s15.359-2.9297 21.215-8.7852c11.723-11.711 11.723-30.707 0-42.422l-60-60c-11.711-11.723-30.719-11.723-42.422 0l-60 60c-11.723 11.711-11.723 30.707 0 42.422 11.711 11.723 30.719 11.723 42.422 0l8.7852-8.793v137.58h-137.58l8.7852-8.7852c11.723-11.711 11.723-30.707 0-42.422-11.711-11.723-30.719-11.723-42.422 0l-60 60c-11.723 11.711-11.723 30.707 0 42.422l60 60c5.8555 5.8555 13.535 8.7852 21.215 8.7852s15.359-2.9297 21.215-8.7852c11.723-11.711 11.723-30.707 0-42.422l-8.793-8.793h137.58v137.58l-8.7852-8.7852c-11.711-11.723-30.719-11.723-42.422 0-11.723 11.711-11.723 30.707 0 42.422l60 60c5.8477 5.8555 13.527 8.7852 21.207 8.7852s15.359-2.9297 21.215-8.7852l60-60c11.723-11.711 11.723-30.707 0-42.422-11.711-11.723-30.719-11.723-42.422 0l-8.793 8.7852v-137.58h137.58l-8.7852 8.7852c-11.723 11.711-11.723 30.707 0 42.422 5.8477 5.8633 13.527 8.793 21.207 8.793s15.359-2.9297 21.215-8.7852l60-60c11.723-11.711 11.723-30.707 0-42.422z"/>
 </g>
</svg>
