<?xml version="1.0" encoding="UTF-8"?>
<svg width="1200pt" height="1200pt" version="1.1" viewBox="0 0 1200 1200" xmlns="http://www.w3.org/2000/svg">
 <path d="m316.56 340.18c-6.2617 0.023437-12.262 2.5352-16.672 6.9805-4.4102 4.4453-6.875 10.465-6.8516 16.727 0.023438 6.2305 2.5117 12.199 6.918 16.609 4.4062 4.4062 10.375 6.8906 16.605 6.9141h236.25c6.2305-0.023437 12.199-2.5078 16.605-6.9141 4.4062-4.4102 6.8945-10.379 6.918-16.609 0.023437-6.2617-2.4414-12.281-6.8516-16.727-4.4141-4.4453-10.41-6.957-16.672-6.9805zm448.75 0c-1.0352 0.007812-2.0703 0.085937-3.0938 0.23047-0.089844 0.015625-0.18359 0.03125-0.27734 0.046875-0.19922 0.042969-0.39844 0.089844-0.59766 0.13672-0.73047 0.10547-1.4531 0.24219-2.168 0.41406-0.078126 0.03125-0.15234 0.0625-0.23047 0.09375h-0.09375c-0.43359 0.14063-0.86328 0.29297-1.2891 0.46094-0.59375 0.19141-1.1797 0.40625-1.7539 0.64453-0.25 0.12109-0.49609 0.24219-0.73828 0.37109-2.4102 1.1445-4.6094 2.6875-6.5039 4.5664l-118.04 118.04c-4.4531 4.4297-6.9609 10.457-6.9609 16.742s2.5078 12.309 6.9609 16.742c4.4258 4.4023 10.414 6.8711 16.652 6.8711 6.2422 0 12.227-2.4688 16.652-6.8711l77.949-77.949v131.96c-0.035156 6.2734 2.4258 12.301 6.8359 16.758 4.4141 4.457 10.418 6.9727 16.691 7 6.2695-0.027344 12.273-2.543 16.688-7 4.4102-4.457 6.8711-10.484 6.8359-16.758v-131.96l77.949 77.949c4.4258 4.3984 10.41 6.8711 16.652 6.8711 6.2383 0 12.227-2.4727 16.648-6.8711 4.457-4.4336 6.9648-10.457 6.9648-16.742s-2.5078-12.312-6.9648-16.742l-118.03-118.04c-0.15234-0.125-0.30859-0.25-0.46094-0.37109-0.60156-0.58594-1.2344-1.1406-1.8906-1.6602-0.16797-0.10938-0.33984-0.21484-0.50781-0.32031-0.0625-0.0625-0.125-0.125-0.18359-0.1875-0.30469-0.20703-0.61328-0.40625-0.92578-0.59766-0.64062-0.41797-1.3047-0.80078-1.9805-1.1523-0.5-0.26562-1.0078-0.51172-1.5234-0.73828h-0.046876c-0.0625-0.03125-0.12109-0.0625-0.18359-0.09375-0.09375-0.03125-0.18359-0.0625-0.27734-0.09375-0.03125-0.011719-0.0625-0.027344-0.09375-0.042969-0.75391-0.30078-1.5234-0.5625-2.3047-0.78516-0.078126-0.03125-0.15234-0.0625-0.23047-0.09375h-0.09375c-0.058594-0.015624-0.12109-0.03125-0.18359-0.042968-0.82031-0.21484-1.6523-0.38672-2.4922-0.50781-0.16797-0.019531-0.33594-0.035156-0.50391-0.046875l-0.23438-0.046875c-0.87109-0.10938-1.7461-0.17188-2.625-0.18359zm-448.75 118.22c-6.2305 0.023437-12.199 2.5078-16.605 6.9141s-6.8945 10.379-6.918 16.609c0.023438 6.2305 2.5117 12.199 6.918 16.605s10.375 6.8945 16.605 6.918h236.25c6.2305-0.023437 12.199-2.5117 16.605-6.918s6.8945-10.375 6.918-16.605c-0.023438-6.2305-2.5117-12.203-6.918-16.609s-10.375-6.8906-16.605-6.9141zm0 118.04c-6.2305 0.023437-12.199 2.5078-16.605 6.9141s-6.8945 10.375-6.918 16.609c-0.023437 6.2617 2.4414 12.277 6.8516 16.727 4.4102 4.4453 10.41 6.957 16.672 6.9805h236.25c6.2617-0.023437 12.258-2.5352 16.672-6.9805 4.4102-4.4492 6.875-10.465 6.8516-16.727-0.023438-6.2344-2.5117-12.203-6.918-16.609s-10.375-6.8906-16.605-6.9141zm448.75 47.23c-6.2344 0.023438-12.203 2.5117-16.609 6.918s-6.8906 10.375-6.918 16.605v132.01l-77.949-77.816c-4.3867-4.4102-10.34-6.9141-16.559-6.9648-6.2852 0.003906-12.312 2.5078-16.746 6.9648-4.3984 4.4258-6.8672 10.414-6.8672 16.652 0 6.2422 2.4688 12.227 6.8672 16.652l118.04 118.22c4.8555 4.8672 11.594 7.375 18.449 6.8711 5.6797-0.40234 11.016-2.8438 15.039-6.8711 0.26562-0.26953 0.52734-0.54688 0.78516-0.83203l117.25-117.39c4.4023-4.4258 6.8711-10.41 6.8711-16.652 0-6.2383-2.4688-12.227-6.8711-16.652-4.4297-4.457-10.457-6.9609-16.742-6.9648-6.2188 0.050781-12.172 2.5547-16.559 6.9648l-77.949 77.816v-132.01c-0.027344-6.2305-2.5117-12.199-6.918-16.605s-10.375-6.8945-16.605-6.918zm-448.75 70.754c-6.2617 0.027343-12.262 2.5391-16.672 6.9844-4.4102 4.4453-6.875 10.461-6.8516 16.727 0.023438 6.2305 2.5117 12.199 6.918 16.605s10.375 6.8945 16.605 6.918h236.25c6.2305-0.023438 12.199-2.5117 16.605-6.918s6.8945-10.375 6.918-16.605c0.023437-6.2656-2.4414-12.281-6.8516-16.727-4.4141-4.4453-10.41-6.957-16.672-6.9844zm0 118.22c-6.2305 0.027343-12.199 2.5117-16.605 6.918s-6.8945 10.375-6.918 16.609c0.023438 6.2305 2.5117 12.199 6.918 16.605s10.375 6.8906 16.605 6.918h236.25c6.2305-0.027344 12.199-2.5117 16.605-6.918s6.8945-10.375 6.918-16.605c-0.023438-6.2344-2.5117-12.203-6.918-16.609s-10.375-6.8906-16.605-6.918z" fill="#ff59b9"/>
</svg>
